<?xml version="1.0" encoding="UTF-8" standalone="no"?>
<!DOCTYPE svg PUBLIC "-//W3C//DTD SVG 1.1//EN"
 "http://www.w3.org/Graphics/SVG/1.1/DTD/svg11.dtd">
<!-- Generated by graphviz version 2.40.1 (20161225.0304)
 -->
<!-- Title: dependencies Pages: 1 -->
<svg width="615pt" height="284pt"
 viewBox="0.00 0.00 615.00 284.00" xmlns="http://www.w3.org/2000/svg" xmlns:xlink="http://www.w3.org/1999/xlink">
<g id="graph0" class="graph" transform="scale(1 1) rotate(0) translate(4 280)">
<title>dependencies</title>
<polygon fill="#ffffff" stroke="transparent" points="-4,4 -4,-280 611,-280 611,4 -4,4"/>
<text text-anchor="start" x="282.5091" y="-42.4" font-family="sans-serif" font-weight="bold" font-size="14.00" fill="#000000">Legend</text>
<polygon fill="#ffffb3" stroke="transparent" points="69.5,-10 69.5,-30 89.5,-30 89.5,-10 69.5,-10"/>
<text text-anchor="start" x="93.129" y="-15.4" font-family="sans-serif" font-size="14.00" fill="#000000"> &#160;Declarations</text>
<polygon fill="#8dd3c7" stroke="transparent" points="182.5,-10 182.5,-30 202.5,-30 202.5,-10 182.5,-10"/>
<text text-anchor="start" x="206.2251" y="-15.4" font-family="sans-serif" font-size="14.00" fill="#000000"> &#160;Module</text>
<polygon fill="#80b1d3" stroke="transparent" points="268.5,-10 268.5,-30 288.5,-30 288.5,-10 268.5,-10"/>
<text text-anchor="start" x="292.2812" y="-15.4" font-family="sans-serif" font-size="14.00" fill="#000000"> &#160;Bootstrap</text>
<polygon fill="#fdb462" stroke="transparent" points="365.5,-10 365.5,-30 385.5,-30 385.5,-10 365.5,-10"/>
<text text-anchor="start" x="389.1732" y="-15.4" font-family="sans-serif" font-size="14.00" fill="#000000"> &#160;Providers</text>
<polygon fill="#fb8072" stroke="transparent" points="461.5,-10 461.5,-30 481.5,-30 481.5,-10 461.5,-10"/>
<text text-anchor="start" x="485.2258" y="-15.4" font-family="sans-serif" font-size="14.00" fill="#000000"> &#160;Exports</text>
<g id="clust1" class="cluster">
<title>cluster_ChartsModule</title>
<polygon fill="none" stroke="#000000" stroke-dasharray="1,5" points="8,-70 8,-268 599,-268 599,-70 8,-70"/>
</g>
<g id="clust2" class="cluster">
<title>cluster_ChartsModule_declarations</title>
<polygon fill="none" stroke="#000000" points="25,-78 25,-130 585,-130 585,-78 25,-78"/>
</g>
<g id="clust8" class="cluster">
<title>cluster_ChartsModule_exports</title>
<polygon fill="none" stroke="#000000" points="16,-208 16,-260 591,-260 591,-208 16,-208"/>
</g>
<!-- ChartsComponent -->
<g id="node1" class="node">
<title>ChartsComponent</title>
<polygon fill="#ffffb3" stroke="#000000" points="576.8795,-122 459.1205,-122 459.1205,-86 576.8795,-86 576.8795,-122"/>
<text text-anchor="middle" x="518" y="-99.8" font-family="Times,serif" font-size="14.00" fill="#000000">ChartsComponent</text>
</g>
<!-- ChartsModule -->
<g id="node5" class="node">
<title>ChartsModule</title>
<polygon fill="#8dd3c7" stroke="#000000" points="282.0968,-187 279.0968,-191 258.0968,-191 255.0968,-187 185.9032,-187 185.9032,-151 282.0968,-151 282.0968,-187"/>
<text text-anchor="middle" x="234" y="-164.8" font-family="Times,serif" font-size="14.00" fill="#000000">ChartsModule</text>
</g>
<!-- ChartsComponent&#45;&gt;ChartsModule -->
<g id="edge1" class="edge">
<title>ChartsComponent&#45;&gt;ChartsModule</title>
<path fill="none" stroke="#000000" d="M538.3966,-122.2667C538.3966,-140.5552 538.3966,-166 538.3966,-166 538.3966,-166 292.2325,-166 292.2325,-166"/>
<polygon fill="#000000" stroke="#000000" points="292.2326,-162.5001 282.2325,-166 292.2325,-169.5001 292.2326,-162.5001"/>
</g>
<!-- ColumnsComponent -->
<g id="node2" class="node">
<title>ColumnsComponent</title>
<polygon fill="#ffffb3" stroke="#000000" points="440.8948,-122 309.1052,-122 309.1052,-86 440.8948,-86 440.8948,-122"/>
<text text-anchor="middle" x="375" y="-99.8" font-family="Times,serif" font-size="14.00" fill="#000000">ColumnsComponent</text>
</g>
<!-- ColumnsComponent&#45;&gt;ChartsModule -->
<g id="edge2" class="edge">
<title>ColumnsComponent&#45;&gt;ChartsModule</title>
<path fill="none" stroke="#000000" d="M396.9825,-122.0091C396.9825,-138.0494 396.9825,-159 396.9825,-159 396.9825,-159 292.4588,-159 292.4588,-159"/>
<polygon fill="#000000" stroke="#000000" points="292.4589,-155.5001 282.4588,-159 292.4588,-162.5001 292.4589,-155.5001"/>
</g>
<!-- RtLineComponent -->
<g id="node3" class="node">
<title>RtLineComponent</title>
<polygon fill="#ffffb3" stroke="#000000" points="291.2176,-122 170.7824,-122 170.7824,-86 291.2176,-86 291.2176,-122"/>
<text text-anchor="middle" x="231" y="-99.8" font-family="Times,serif" font-size="14.00" fill="#000000">RtLineComponent</text>
</g>
<!-- RtLineComponent&#45;&gt;ChartsModule -->
<g id="edge3" class="edge">
<title>RtLineComponent&#45;&gt;ChartsModule</title>
<path fill="none" stroke="#000000" d="M234,-122.1061C234,-122.1061 234,-140.991 234,-140.991"/>
<polygon fill="#000000" stroke="#000000" points="230.5001,-140.9909 234,-150.991 237.5001,-140.991 230.5001,-140.9909"/>
</g>
<!-- ScatterComponent -->
<g id="node4" class="node">
<title>ScatterComponent</title>
<polygon fill="#ffffb3" stroke="#000000" points="153.2008,-122 32.7992,-122 32.7992,-86 153.2008,-86 153.2008,-122"/>
<text text-anchor="middle" x="93" y="-99.8" font-family="Times,serif" font-size="14.00" fill="#000000">ScatterComponent</text>
</g>
<!-- ScatterComponent&#45;&gt;ChartsModule -->
<g id="edge4" class="edge">
<title>ScatterComponent&#45;&gt;ChartsModule</title>
<path fill="none" stroke="#000000" d="M109.5334,-122.0225C109.5334,-139.3734 109.5334,-163 109.5334,-163 109.5334,-163 175.878,-163 175.878,-163"/>
<polygon fill="#000000" stroke="#000000" points="175.878,-166.5001 185.878,-163 175.8779,-159.5001 175.878,-166.5001"/>
</g>
<!-- ChartsComponent  -->
<g id="node6" class="node">
<title>ChartsComponent </title>
<polygon fill="#fb8072" stroke="#000000" points="582.88,-252 461.12,-252 461.12,-216 582.88,-216 582.88,-252"/>
<text text-anchor="middle" x="522" y="-229.8" font-family="Times,serif" font-size="14.00" fill="#000000">ChartsComponent </text>
</g>
<!-- ChartsModule&#45;&gt;ChartsComponent  -->
<g id="edge5" class="edge">
<title>ChartsModule&#45;&gt;ChartsComponent </title>
<path fill="none" stroke="#000000" stroke-dasharray="5,2" d="M282.1441,-173C358.7557,-173 499.8534,-173 499.8534,-173 499.8534,-173 499.8534,-205.698 499.8534,-205.698"/>
<polygon fill="#000000" stroke="#000000" points="496.3535,-205.698 499.8534,-215.698 503.3535,-205.698 496.3535,-205.698"/>
</g>
<!-- ColumnsComponent  -->
<g id="node7" class="node">
<title>ColumnsComponent </title>
<polygon fill="#fb8072" stroke="#000000" points="443.8954,-252 308.1046,-252 308.1046,-216 443.8954,-216 443.8954,-252"/>
<text text-anchor="middle" x="376" y="-229.8" font-family="Times,serif" font-size="14.00" fill="#000000">ColumnsComponent </text>
</g>
<!-- ChartsModule&#45;&gt;ColumnsComponent  -->
<g id="edge6" class="edge">
<title>ChartsModule&#45;&gt;ColumnsComponent </title>
<path fill="none" stroke="#000000" stroke-dasharray="5,2" d="M282.0659,-180C315.0977,-180 353.0175,-180 353.0175,-180 353.0175,-180 353.0175,-205.7181 353.0175,-205.7181"/>
<polygon fill="#000000" stroke="#000000" points="349.5176,-205.718 353.0175,-215.7181 356.5176,-205.7181 349.5176,-205.718"/>
</g>
<!-- RtLineComponent  -->
<g id="node8" class="node">
<title>RtLineComponent </title>
<polygon fill="#fb8072" stroke="#000000" points="289.7177,-252 166.2823,-252 166.2823,-216 289.7177,-216 289.7177,-252"/>
<text text-anchor="middle" x="228" y="-229.8" font-family="Times,serif" font-size="14.00" fill="#000000">RtLineComponent </text>
</g>
<!-- ChartsModule&#45;&gt;RtLineComponent  -->
<g id="edge7" class="edge">
<title>ChartsModule&#45;&gt;RtLineComponent </title>
<path fill="none" stroke="#000000" stroke-dasharray="5,2" d="M234,-187.1061C234,-187.1061 234,-205.991 234,-205.991"/>
<polygon fill="#000000" stroke="#000000" points="230.5001,-205.9909 234,-215.991 237.5001,-205.991 230.5001,-205.9909"/>
</g>
<!-- ScatterComponent  -->
<g id="node9" class="node">
<title>ScatterComponent </title>
<polygon fill="#fb8072" stroke="#000000" points="147.701,-252 24.299,-252 24.299,-216 147.701,-216 147.701,-252"/>
<text text-anchor="middle" x="86" y="-229.8" font-family="Times,serif" font-size="14.00" fill="#000000">ScatterComponent </text>
</g>
<!-- ChartsModule&#45;&gt;ScatterComponent  -->
<g id="edge8" class="edge">
<title>ChartsModule&#45;&gt;ScatterComponent </title>
<path fill="none" stroke="#000000" stroke-dasharray="5,2" d="M185.6003,-175C137.6162,-175 71.2166,-175 71.2166,-175 71.2166,-175 71.2166,-205.9775 71.2166,-205.9775"/>
<polygon fill="#000000" stroke="#000000" points="67.7167,-205.9774 71.2166,-215.9775 74.7167,-205.9775 67.7167,-205.9774"/>
</g>
</g>
</svg>
